<svg
 xmlns="http://www.w3.org/2000/svg"
 xmlns:xlink="http://www.w3.org/1999/xlink"
 width="34px" height="34px">
<path fill-rule="evenodd"  fill="#88e7a5"
 d="M25.064,29.416 C23.100,30.176 20.753,30.556 18.024,30.556 C15.192,30.556 12.677,30.102 10.478,29.194 C8.280,28.286 6.573,26.844 5.357,24.869 C4.140,22.893 3.532,20.701 3.532,18.291 C3.532,15.813 4.078,13.429 5.168,11.139 C6.259,8.850 7.880,7.074 10.033,5.812 C12.185,4.550 14.809,3.919 17.904,3.919 C21.547,3.919 24.385,4.864 26.417,6.754 C28.450,8.644 29.466,10.994 29.466,13.803 C29.466,15.368 29.107,16.881 28.387,18.342 C27.668,19.804 26.726,20.969 25.561,21.837 C24.693,22.499 23.985,22.830 23.437,22.830 C23.254,22.830 23.097,22.759 22.966,22.616 C22.834,22.473 22.769,22.259 22.769,21.974 C22.769,21.745 22.849,21.243 23.009,20.466 L25.595,8.184 L21.073,8.184 L20.645,10.086 C19.674,8.533 18.172,7.756 16.140,7.756 C13.285,7.756 10.944,9.104 9.117,11.799 C7.609,14.014 6.855,16.464 6.855,19.147 C6.855,21.317 7.481,23.056 8.731,24.363 C9.982,25.671 11.555,26.325 13.450,26.325 C15.209,26.325 16.762,25.674 18.110,24.372 C18.269,25.012 18.589,25.497 19.069,25.828 C19.548,26.159 20.262,26.325 21.210,26.325 C24.727,26.325 27.611,24.840 29.860,21.871 C31.653,19.519 32.550,16.886 32.550,13.974 C32.550,11.531 31.959,9.278 30.777,7.217 C29.595,5.155 27.885,3.565 25.647,2.446 C23.408,1.327 20.850,0.767 17.973,0.767 C14.581,0.767 11.566,1.461 8.928,2.849 C6.290,4.236 4.212,6.315 2.693,9.084 C1.174,11.853 0.415,14.842 0.415,18.051 C0.415,20.975 1.083,23.678 2.419,26.162 C3.755,28.646 5.793,30.524 8.534,31.797 C11.275,33.071 14.530,33.707 18.298,33.707 C22.192,33.707 25.492,32.954 28.199,31.446 C30.563,30.133 32.316,28.317 33.458,25.999 L29.809,25.999 C28.610,27.518 27.028,28.657 25.064,29.416 ZM11.926,15.225 C12.348,13.820 12.976,12.738 13.810,11.979 C14.644,11.219 15.551,10.840 16.534,10.840 C17.447,10.840 18.204,11.185 18.803,11.876 C19.403,12.567 19.703,13.558 19.703,14.848 C19.703,16.001 19.483,17.246 19.043,18.582 C18.603,19.918 18.081,20.935 17.476,21.631 C17.053,22.122 16.625,22.482 16.191,22.710 C15.620,23.030 15.009,23.190 14.358,23.190 C13.490,23.190 12.762,22.847 12.174,22.162 C11.586,21.477 11.292,20.409 11.292,18.959 C11.292,17.874 11.503,16.629 11.926,15.225 Z"/>
</svg>