<svg xmlns="http://www.w3.org/2000/svg" width="68" height="40" viewBox="0 0 68 40">
  <defs>
    <style>
      .cls-1 {
        fill: #88e7a5;
        fill-rule: evenodd;
      }
    </style>
  </defs>
  <path class="cls-1" d="M362,13.25h8.183v3.123h-4.91V27.826H362V13.25Zm10.433,14.577V13.25h3.273v9.058l6.342-9.058h2.864V27.826h-3.273V18.768L375.3,27.826h-2.864Zm23.219-11.454H390.64V27.826h-3.273V13.25h11.558V27.826h-3.273V16.372Zm14.013,0h-5.012V27.826H401.38V13.25h11.558V27.826h-3.273V16.372ZM422.389,13c4.358,0,7.611,2.895,7.611,7.539a7.329,7.329,0,0,1-7.611,7.538c-4.357,0-7.61-2.894-7.61-7.538A7.319,7.319,0,0,1,422.389,13Zm0,11.954c2.721,0,4.133-1.958,4.133-4.414a4.142,4.142,0,1,0-8.265,0A4.237,4.237,0,0,0,422.389,24.952Zm-52.1,7.766h-5.012V44.172H362V29.6h11.559V44.172h-3.274V32.719ZM382.6,29.345c4.358,0,7.611,2.895,7.611,7.538a7.33,7.33,0,0,1-7.611,7.538c-4.357,0-7.61-2.894-7.61-7.538A7.319,7.319,0,0,1,382.6,29.345Zm0,11.953c2.721,0,4.133-1.958,4.133-4.415a4.142,4.142,0,1,0-8.265,0A4.236,4.236,0,0,0,382.6,41.3Zm22.892-11.7h2.925l5.953,14.577h-3.5l-1.186-3.061h-5.667l-1.187,3.061h-3.293Zm-0.246,8.392h3.212l-1.6-4.124Zm9.738-8.392h3.293l4.419,6.143,4.173-6.143h3.089V44.172h-3.273V34.885L422.7,40.57h-0.471l-3.968-5.623v9.225h-3.273V29.6Zm-24.774,0v3.123a4.21,4.21,0,0,1,2.12.574,0.1,0.1,0,0,0,.159-0.08,1.072,1.072,0,0,1,.946-1.021,1.083,1.083,0,0,1,1.271.913,1.141,1.141,0,0,1-.872,1.338,0.123,0.123,0,0,0-.085.177c0.767,1.549,1.186,6.582,1.186,6.582a31.421,31.421,0,0,1,.133,4.732l-0.284,5.952A1.053,1.053,0,0,0,395.825,53h0.636a1.053,1.053,0,0,0,1.041-1.113l-0.284-6a31.285,31.285,0,0,1,.137-4.751s0.448-5.35,1.179-6.51a0.115,0.115,0,0,0-.075-0.179,1.094,1.094,0,0,1-1.027-1.292,1.07,1.07,0,0,1,.91-0.953,1.058,1.058,0,0,1,1.312,1.088,0.109,0.109,0,0,0,.168.084,4.174,4.174,0,0,1,2.254-.654V29.6H390.21Zm6.429,6.774a9.752,9.752,0,0,0,4.184,2.526,0.141,0.141,0,0,1-.039.277,8.84,8.84,0,0,1-4.714-1.79Zm-1,0a9.758,9.758,0,0,1-4.184,2.526,0.141,0.141,0,0,0,.039.277,8.843,8.843,0,0,0,4.714-1.79Z" transform="translate(-362 -13)"/>
</svg>
