<svg id="Слой_1" data-name="Слой 1" xmlns="http://www.w3.org/2000/svg" xmlns:xlink="http://www.w3.org/1999/xlink" viewBox="0 0 63.86 63.86"><defs><style>.cls-1{fill:url(#Безымянный_градиент_3);}.cls-2{fill:#fff;}</style><linearGradient id="Безымянный_градиент_3" x1="9.35" y1="54.51" x2="54.51" y2="9.35" gradientUnits="userSpaceOnUse"><stop offset="0" stop-color="#cf9b45"/><stop offset="0.3" stop-color="#ae4e4f"/><stop offset="0.6" stop-color="#a62173"/><stop offset="1" stop-color="#614898"/></linearGradient></defs><circle class="cls-1" cx="31.93" cy="31.93" r="31.93"/><path class="cls-2" d="M664,157.78H651.88a7.14,7.14,0,0,0-7.13,7.13V177a7.14,7.14,0,0,0,7.13,7.13H664a7.14,7.14,0,0,0,7.13-7.13V164.91A7.14,7.14,0,0,0,664,157.78Zm-6,20.37a7.2,7.2,0,1,1,7.2-7.2A7.21,7.21,0,0,1,657.92,178.15Zm7.38-12.71a2.13,2.13,0,1,1,2.13-2.12A2.12,2.12,0,0,1,665.3,165.44Z" transform="translate(-625.99 -139.02)"/><path class="cls-2" d="M657.92,165.75a5.2,5.2,0,1,0,5.2,5.2A5.2,5.2,0,0,0,657.92,165.75Z" transform="translate(-625.99 -139.02)"/><path class="cls-2" d="M665.3,162.73a.59.59,0,1,0,0,1.17.59.59,0,0,0,0-1.17Z" transform="translate(-625.99 -139.02)"/></svg>