<svg id="Слой_1" data-name="Слой 1" xmlns="http://www.w3.org/2000/svg" viewBox="0 0 63.86 63.86"><defs><style>.cls-1{fill:#cc2128;}.cls-2{fill:#fff;}</style></defs><circle class="cls-1" cx="31.93" cy="31.93" r="31.93"/><path class="cls-2" d="M657.87,271.56a15.2,15.2,0,0,0-6.1,29.12,13.58,13.58,0,0,1,.26-3.49c.3-1.23,2-8.28,2-8.28a5.8,5.8,0,0,1-.49-2.41c0-2.25,1.31-3.93,2.94-3.93a2,2,0,0,1,2,2.28c0,1.39-.89,3.47-1.34,5.4a2.34,2.34,0,0,0,2.39,2.92c2.88,0,4.82-3.69,4.82-8.08,0-3.33-2.24-5.82-6.32-5.82a7.2,7.2,0,0,0-7.48,7.28,4.41,4.41,0,0,0,1,3,.72.72,0,0,1,.21.85c-.06.28-.23.95-.3,1.21a.52.52,0,0,1-.76.38c-2.13-.86-3.12-3.19-3.12-5.8,0-4.32,3.64-9.5,10.87-9.5,5.8,0,9.62,4.2,9.62,8.71,0,6-3.31,10.42-8.2,10.42a4.34,4.34,0,0,1-3.71-1.9s-.89,3.51-1.07,4.18a13.24,13.24,0,0,1-1.53,3.26,15.2,15.2,0,1,0,4.3-29.78Z" transform="translate(-625.99 -254.6)"/></svg>